<svg xmlns="http://www.w3.org/2000/svg" width="1024" height="1024" viewBox="0 0 1024 1024">
  <defs>
    <linearGradient id="plate" x1="130" y1="100" x2="850" y2="920" gradientUnits="userSpaceOnUse">
      <stop stop-color="#26383c"/>
      <stop offset="1" stop-color="#142126"/>
    </linearGradient>
    <linearGradient id="cyan" x1="235" y1="520" x2="790" y2="350" gradientUnits="userSpaceOnUse">
      <stop stop-color="#23d4db"/>
      <stop offset="1" stop-color="#42aeea"/>
    </linearGradient>
    <linearGradient id="orange" x1="225" y1="640" x2="805" y2="465" gradientUnits="userSpaceOnUse">
      <stop stop-color="#ffb02e"/>
      <stop offset="1" stop-color="#ff6b45"/>
    </linearGradient>
    <linearGradient id="violet" x1="220" y1="760" x2="810" y2="565" gradientUnits="userSpaceOnUse">
      <stop stop-color="#8875ff"/>
      <stop offset="1" stop-color="#cf62c7"/>
    </linearGradient>
    <filter id="shadow" x="60" y="70" width="904" height="910" filterUnits="userSpaceOnUse">
      <feDropShadow dx="0" dy="34" stdDeviation="30" flood-color="#071012" flood-opacity=".36"/>
    </filter>
  </defs>
  <g filter="url(#shadow)">
    <rect x="112" y="96" width="800" height="800" rx="184" fill="url(#plate)"/>
    <rect x="124" y="108" width="776" height="776" rx="172" fill="none" stroke="#547077" stroke-opacity=".34" stroke-width="8"/>
  </g>
  <g fill="none" stroke="#bcd0d2" stroke-opacity=".22" stroke-linecap="round" stroke-width="18">
    <path d="M244 242v34"/><path d="M360 205v34"/><path d="M512 191v34"/>
    <path d="M664 205v34"/><path d="M780 242v34"/>
  </g>
  <path d="M216 552C292 552 304 446 374 446c65 0 74 68 130 68 75 0 70-178 145-178 59 0 64 82 159 82v110c-96 0-103-72-159-72-71 0-78 170-145 170-61 0-66-70-130-70-68 0-84 106-158 106Z" fill="url(#cyan)"/>
  <path d="M216 662c74 0 90-106 158-106 64 0 69 70 130 70 67 0 74-170 145-170 56 0 63 72 159 72v102c-91 0-107-68-159-68-68 0-82 154-145 154-58 0-73-60-130-60-65 0-87 98-158 98Z" fill="url(#orange)"/>
  <path d="M216 754c71 0 93-98 158-98 57 0 72 60 130 60 63 0 77-154 145-154 52 0 68 68 159 68v130c0 44-36 80-80 80H296c-44 0-80-36-80-80Z" fill="url(#violet)"/>
  <circle cx="649" cy="456" r="24" fill="#f3ffff"/>
  <circle cx="649" cy="456" r="12" fill="#23bfcf"/>
</svg>
